HIERARCHY
ROOT Hips
{
  OFFSET -4.35178 90.3298 111.633
  CHANNELS 6 Xposition Yposition Zposition Zrotation Xrotation Yrotation
  JOINT LeftUpLeg
  {
    OFFSET 0.103456 1.85784 10.5485
    CHANNELS 6 Xposition Yposition Zposition Zrotation Xrotation Yrotation
    JOINT LeftLeg
    {
      OFFSET 43.5 -4.2e-05 0
      CHANNELS 6 Xposition Yposition Zposition Zrotation Xrotation Yrotation
      JOINT LeftFoot
      {
        OFFSET 42.3722 1.9e-05 0
        CHANNELS 6 Xposition Yposition Zposition Zrotation Xrotation Yrotation
        JOINT LeftToe
        {
          OFFSET 17.3 0 0
          CHANNELS 6 Xposition Yposition Zposition Zrotation Xrotation Yrotation
          End Site
          {
            OFFSET 0 0 0
          }
        }
      }
    }
  }
  JOINT RightUpLeg
  {
    OFFSET 0.103456 1.85782 -10.5485
    CHANNELS 6 Xposition Yposition Zposition Zrotation Xrotation Yrotation
    JOINT RightLeg
    {
      OFFSET 43.5 -2.7e-05 0
      CHANNELS 6 Xposition Yposition Zposition Zrotation Xrotation Yrotation
      JOINT RightFoot
      {
        OFFSET 42.3723 0 0
        CHANNELS 6 Xposition Yposition Zposition Zrotation Xrotation Yrotation
        JOINT RightToe
        {
          OFFSET 17.3 0 1.7e-05
          CHANNELS 6 Xposition Yposition Zposition Zrotation Xrotation Yrotation
          End Site
          {
            OFFSET 0 0 0
          }
        }
      }
    }
  }
  JOINT Spine
  {
    OFFSET 6.90197 -2.60373 0
    CHANNELS 6 Xposition Yposition Zposition Zrotation Xrotation Yrotation
    JOINT Spine1
    {
      OFFSET 12.5881 0 0
      CHANNELS 6 Xposition Yposition Zposition Zrotation Xrotation Yrotation
      JOINT Spine2
      {
        OFFSET 12.3432 -1.8e-05 0
        CHANNELS 6 Xposition Yposition Zposition Zrotation Xrotation Yrotation
        JOINT Neck
        {
          OFFSET 25.8329 2.3e-05 0
          CHANNELS 6 Xposition Yposition Zposition Zrotation Xrotation Yrotation
          JOINT Head
          {
            OFFSET 11.7666 0 0
            CHANNELS 6 Xposition Yposition Zposition Zrotation Xrotation Yrotation
            End Site
            {
              OFFSET 0 0 0
            }
          }
        }
        JOINT LeftShoulder
        {
          OFFSET 19.7459 -1.48035 6.0001
          CHANNELS 6 Xposition Yposition Zposition Zrotation Xrotation Yrotation
          JOINT LeftArm
          {
            OFFSET 11.2841 1.8e-05 -2e-05
            CHANNELS 6 Xposition Yposition Zposition Zrotation Xrotation Yrotation
            JOINT LeftForeArm
            {
              OFFSET 33 -1.3e-05 1.9e-05
              CHANNELS 6 Xposition Yposition Zposition Zrotation Xrotation Yrotation
              JOINT LeftHand
              {
                OFFSET 25.2 3.2e-05 1.1e-05
                CHANNELS 6 Xposition Yposition Zposition Zrotation Xrotation Yrotation
                End Site
                {
                  OFFSET 0 0 0
                }
              }
            }
          }
        }
        JOINT RightShoulder
        {
          OFFSET 19.7461 -1.48036 -6.00008
          CHANNELS 6 Xposition Yposition Zposition Zrotation Xrotation Yrotation
          JOINT RightArm
          {
            OFFSET 11.2841 0 0
            CHANNELS 6 Xposition Yposition Zposition Zrotation Xrotation Yrotation
            JOINT RightForeArm
            {
              OFFSET 33.0001 1.6e-05 0
              CHANNELS 6 Xposition Yposition Zposition Zrotation Xrotation Yrotation
              JOINT RightHand
              {
                OFFSET 25.1998 0.000123 0.000432
                CHANNELS 6 Xposition Yposition Zposition Zrotation Xrotation Yrotation
                End Site
                {
                  OFFSET 0 0 0
                }
              }
            }
          }
        }
      }
    }
  }
}
MOTION
Frames:	7
Frame Time:	0.0333333
85.2022 86.6098 -156.768 83.8343 -38.6399 -4.67649 0.103456 1.85784 10.5485 13.5826 1.79819 179.797 43.5 -4.2e-05 1e-05 -41.1618 -4.11968 -6.58128 42.3722 1.9e-05 2.84217e-14 67.9726 11.1679 -3.13064 17.3 0 3e-06 21.4546 -1e-06 0.003093 0.103456 1.85782 -10.5485 -17.3139 -10.1327 177.851 43.5 -2.7e-05 4e-06 -20.2439 5.61572 1.59719 42.3723 -1.42109e-14 1e-05 73.0204 0.370831 -0.571728 17.3 -6e-06 1.7e-05 21.4546 -1.9e-05 -0.003116 6.90197 -2.60373 -3e-06 8.14572 0.537114 0.502274 12.5881 1e-05 8e-06 6.25688 1.22794 0.943615 12.3432 -1.8e-05 -5e-06 5.91654 1.37579 0.87921 25.8329 2.3e-05 7e-06 2.03901 1.648 -12.2565 11.7666 -8e-06 -6e-06 -4.61328 4.12235 2.29881 19.7459 -1.48035 6.0001 -174.956 9.06807 -81.3113 11.2841 1.8e-05 -2e-05 -8.37051 -12.4111 58.7292 33 -1.3e-05 1.9e-05 -65.9797 1.13865 -5.62756 25.2 3.2e-05 1.1e-05 -10.2348 41.7195 -10.4012 19.7461 -1.48036 -6.00008 -171.01 5.85882 65.8708 11.2841 0 -1e-06 -6.13723 6.25851 -43.6264 33.0001 1.6e-05 -1e-06 -27.3074 29.5758 4.73799 25.1998 0.000123 0.000432 -8.73062 49.8578 -31.7798 
81.904 87.1305 -159.745 82.9321 -35.9037 -4.6695 0.103456 1.85784 10.5485 9.67557 2.52219 -176.903 43.5 -4.2e-05 1e-05 -50.7265 -0.422537 -7.07747 42.3722 1.9e-05 0 59.7277 18.6302 -5.57109 17.3 1.42109e-14 3e-06 21.4546 -1e-06 0.003093 0.103456 1.85782 -10.5485 -16.6598 -8.46718 177.76 43.5 -2.7e-05 4e-06 -27.0455 7.18855 0.104046 42.3723 -1.42109e-14 1e-05 77.2338 1.72878 -2.52294 17.3 -6e-06 1.7e-05 21.4546 -1.9e-05 -0.003116 6.90197 -2.60373 -3e-06 8.34569 0.348374 0.500232 12.5881 1e-05 8e-06 6.66225 0.857653 0.967842 12.3432 -1.8e-05 -5e-06 6.32683 1.01386 0.926662 25.8329 2.3e-05 7e-06 2.08649 1.6972 -12.3632 11.7666 -8e-06 -6e-06 -4.53684 4.28253 2.18177 19.7459 -1.48035 6.0001 -175.088 9.78854 -80.9481 11.2841 1.8e-05 -2e-05 -7.83692 -12.3509 59.6289 33 -1.3e-05 1.9e-05 -60.5383 2.16921 -5.90075 25.2 3.2e-05 1.1e-05 -9.37149 41.6542 -10.4653 19.7461 -1.48036 -6.00008 -170.993 5.58681 65.8429 11.2841 0 -1e-06 -5.73354 6.78727 -43.9587 33.0001 1.6e-05 -1e-06 -26.1427 28.9476 5.38942 25.1998 0.000123 0.000432 -14.0202 48.7503 -27.6225 
78.5025 87.4471 -162.449 82.2211 -32.5466 -4.37689 0.103456 1.85784 10.5485 4.60341 3.17368 -174.996 43.5 -4.2e-05 1e-05 -60.0521 0.927559 -4.79675 42.3722 1.9e-05 -2.84217e-14 53.9049 27.6638 -7.91446 17.3 0 3e-06 21.4546 -1e-06 0.003093 0.103456 1.85782 -10.5485 -14.1637 -8.27182 177.021 43.5 -2.7e-05 4e-06 -30.3331 8.53143 -0.307902 42.3723 0 1e-05 80.8937 3.82464 -3.36694 17.3 -6e-06 1.7e-05 21.4546 -1.9e-05 -0.003116 6.90197 -2.60373 -3e-06 8.59428 0.0812119 0.508532 12.5881 1e-05 8e-06 7.16723 0.334344 1.02671 12.3432 -1.8e-05 -5e-06 6.83894 0.502952 1.0182 25.8329 2.3e-05 7e-06 2.09965 1.65179 -12.2169 11.7666 -8e-06 -6e-06 -5.16628 4.06586 2.3198 19.7459 -1.48035 6.0001 -175.172 10.7833 -81.0733 11.2841 1.8e-05 -2e-05 -7.37653 -12.4472 61.0735 33 -1.3e-05 1.9e-05 -54.3139 3.19003 -6.33188 25.2 3.2e-05 1.1e-05 -7.7655 41.6406 -10.798 19.7461 -1.48036 -6.00008 -170.872 4.95104 66.4248 11.2841 1.42109e-14 -1e-06 -5.62057 7.29138 -44.4194 33.0001 1.6e-05 -1e-06 -25.1376 28.6035 5.94018 25.1998 0.000123 0.000432 -17.5347 47.8846 -24.7668 
75.2038 87.8259 -164.799 81.8709 -28.7261 -3.67243 0.103456 1.85784 10.5485 -0.964627 4.5449 -173.892 43.5 -4.2e-05 1e-05 -67.7734 0.366526 -1.99369 42.3722 1.9e-05 0 51.9366 30.4854 -8.02948 17.3 -7.10543e-15 3e-06 21.4546 -1e-06 0.003093 0.103456 1.85782 -10.5485 -10.5098 -10.3859 175.605 43.5 -2.7e-05 4e-06 -30.4749 9.59457 0.260709 42.3723 0 1e-05 83.757 4.34925 -3.63463 17.3 -6e-06 1.7e-05 21.4546 -1.9e-05 -0.003116 6.90197 -2.60373 -3e-06 8.7436 -0.166253 0.472023 12.5881 1e-05 8e-06 7.47388 -0.1597 0.99492 12.3432 -1.8e-05 -5e-06 7.15302 0.0125861 1.01726 25.8329 2.3e-05 7e-06 2.1655 1.31542 -11.8594 11.7666 -8e-06 -6e-06 -5.8693 3.39104 2.64977 19.7459 -1.48035 6.0001 -175.579 11.3845 -81.0934 11.2841 1.8e-05 -2e-05 -8.39055 -11.6521 61.5784 33 -1.3e-05 1.9e-05 -47.8215 3.08154 -6.54887 25.2 3.2e-05 1.1e-05 -5.50158 41.0885 -10.8963 19.7461 -1.48036 -6.00008 -170.684 4.46132 66.9727 11.2841 1.42109e-14 -1e-06 -5.68386 7.23501 -44.6859 33.0001 1.6e-05 -1e-06 -24.4395 28.8077 6.28392 25.1998 0.000123 0.000432 -17.6422 48.2107 -24.7061 
72.0025 88.2769 -166.843 81.7391 -25.2624 -2.83582 0.103456 1.85784 10.5485 -6.55812 6.34662 -173.526 43.5 -4.2e-05 1e-05 -72.8265 0.225514 -0.48135 42.3722 1.9e-05 0 54.9497 22.3734 -2.61518 17.3 0 3e-06 21.4546 -1e-06 0.003093 0.103456 1.85782 -10.5485 -6.62355 -12.5697 174.582 43.5 -2.7e-05 4e-06 -29.2197 10.3296 0.747326 42.3723 -1.42109e-14 1e-05 85.484 4.91989 -3.95478 17.3 -6e-06 1.7e-05 21.4546 -1.9e-05 -0.003116 6.90197 -2.60373 -3e-06 8.84067 -0.25283 0.367653 12.5881 1e-05 8e-06 7.67126 -0.347012 0.801893 12.3432 -1.8e-05 -5e-06 7.35412 -0.183247 0.836362 25.8329 2.3e-05 7e-06 2.25785 1.21114 -11.6038 11.7666 -8e-06 -6e-06 -6.46897 2.92366 3.28691 19.7459 -1.48035 6.0001 -176.009 11.6745 -80.9092 11.2841 1.8e-05 -2e-05 -10.1753 -10.2047 61.2571 33 -1.3e-05 1.9e-05 -41.9594 2.63775 -6.64307 25.2 3.2e-05 1.1e-05 -3.84801 39.9213 -10.0699 19.7461 -1.48036 -6.00008 -170.619 4.08484 67.1846 11.2841 -1.42109e-14 -1e-06 -5.8243 7.07732 -44.8177 33.0001 1.6e-05 -1e-06 -23.7628 29.3802 6.67763 25.1998 0.000123 0.000432 -13.9726 49.3799 -27.3972 
68.8815 88.7123 -168.633 81.721 -22.6542 -2.1254 0.103456 1.85784 10.5485 -11.6444 8.23654 -173.661 43.5 -4.2e-05 1e-05 -74.3337 0.382151 -0.360801 42.3722 1.9e-05 2.84217e-14 57.834 14.4174 3.38716 17.3 0 3e-06 21.4546 -1e-06 0.003093 0.103456 1.85782 -10.5485 -3.07264 -13.9714 174.151 43.5 -2.7e-05 4e-06 -27.8623 10.8591 1.12224 42.3723 -1.42109e-14 1e-05 86.3972 5.45121 -4.59823 17.3 -6e-06 1.7e-05 21.4546 -1.9e-05 -0.003116 6.90197 -2.60373 -3e-06 8.97968 -0.190126 0.233589 12.5881 1e-05 8e-06 7.948 -0.240663 0.524818 12.3432 -1.8e-05 -5e-06 7.63047 -0.0901322 0.553486 25.8329 2.3e-05 7e-06 2.16307 1.00205 -11.3265 11.7666 -8e-06 -6e-06 -7.1633 2.31916 3.72524 19.7459 -1.48035 6.0001 -176.196 11.5668 -80.5802 11.2841 1.8e-05 -2e-05 -11.3119 -8.76743 60.7393 33 -1.3e-05 1.9e-05 -37.5909 2.21263 -6.7666 25.2 3.2e-05 1.1e-05 -2.73536 38.3838 -8.58715 19.7461 -1.48036 -6.00008 -170.719 3.51446 67.3111 11.2841 -2.84217e-14 -1e-06 -6.06458 7.38862 -45.0078 33.0001 1.6e-05 -1e-06 -22.9605 29.9349 7.41663 25.1998 0.000123 0.000432 -7.25555 50.5547 -32.0038 
65.7813 89.062 -170.255 81.8044 -20.6433 -1.54646 0.103456 1.85784 10.5485 -15.8191 9.95353 -174.384 43.5 -4.2e-05 1e-05 -72.5178 0.491072 -0.872971 42.3722 1.9e-05 2.84217e-14 59.469 7.34466 8.08394 17.3 -7.10543e-15 3e-06 21.4546 -1e-06 0.003093 0.103456 1.85782 -10.5485 0.404263 -15.4783 173.932 43.5 -2.7e-05 4e-06 -26.0815 11.2173 1.67497 42.3723 0 1e-05 86.7463 5.78151 -4.95594 17.3 -6e-06 1.7e-05 21.4546 -1.9e-05 -0.003116 6.90197 -2.60373 -3e-06 9.13153 -0.0428677 0.107232 12.5881 1e-05 8e-06 8.2485 0.0349799 0.248289 12.3432 -1.8e-05 -5e-06 7.92794 0.172465 0.260654 25.8329 2.3e-05 7e-06 1.94259 0.752811 -11.1264 11.7666 -8e-06 -6e-06 -7.46199 1.76952 3.85617 19.7459 -1.48035 6.0001 -175.952 11.4363 -80.1255 11.2841 1.8e-05 -2e-05 -11.8321 -7.3397 60.2076 33 -1.3e-05 1.9e-05 -34.6766 2.99527 -7.42506 25.2 3.2e-05 1.1e-05 -2.32244 37.6352 -7.53742 19.7461 -1.48036 -6.00008 -170.948 2.85666 67.5668 11.2841 -7.10543e-15 -1e-06 -6.23283 8.06137 -45.219 33.0001 1.6e-05 -1e-06 -22.3089 30.236 8.07572 25.1998 0.000123 0.000432 -3.61599 50.6198 -33.9099 
